<!-- apple.svg -->
<svg xmlns="http://www.w3.org/2000/svg" width="32" height="32" fill="none" viewBox="0 0 32 32">
  <path fill="#fff" d="M25.72 19.53c-.07-2.65 2.14-3.91 2.23-3.97-1.22-1.79-3.13-2.03-3.8-2.05-1.62-.16-3.15.96-3.97.96-.82 0-2.09-.94-3.43-.91-1.76.03-3.37 1.03-4.27 2.62-1.81 3.14-.46 7.77 1.3 10.31.86 1.23 1.89 2.6 3.23 2.55 1.3-.05 1.78-.82 3.34-.82 1.56 0 1.98.82 3.33.8 1.38-.03 2.24-1.25 3.07-2.49.97-1.41 1.37-2.78 1.39-2.85-.03-.01-2.67-1.02-2.7-4.01z"/>
  <path fill="#fff" d="M21.91 8.31c.68-.84 1.15-2.01 1.02-3.18-1 0-2.2.67-2.91 1.51-.64.75-1.21 1.96-1 3.12 1.13.08 2.31-.58 2.89-1.45z"/>
</svg>