<!-- google-mono-white.svg -->
<svg xmlns="http://www.w3.org/2000/svg" width="32" height="32" viewBox="0 0 32 32">
  <path fill="#fff" d="M16.32 14.43V17.6h6.71c-.15 1.13-.95 2.82-2.74 3.97l-.03.19 3.98 3.09.28.03c2.56-2.37 4.03-5.86 4.03-9.77 0-.81-.07-1.61-.19-2.38H16.32z"/>
  <path fill="#fff" d="M9.84 18.89a7.91 7.91 0 0 1 0-5.01v-.2l-4.05-3.14-.13.06a13.115 13.115 0 0 0 0 11.38l4.17-3.09z"/>
  <path fill="#fff" d="M16.32 24.1c2.7 0 4.98-.9 6.63-2.45l-3.16-2.46c-.88.62-2.05 1.06-3.47 1.06-2.67 0-4.94-1.8-5.75-4.19l-.19.02-3.19 2.43-.04.17a10.57 10.57 0 0 0 6.97 5.39c.96.24 1.97.37 3 .37z"/>
  <path fill="#fff" d="M9.16 13.06a6.19 6.19 0 0 1-.34-1.94A10.49 10.49 0 0 1 16.32 7.9c1.55 0 2.93.53 4.03 1.58l3.01-2.92A13.28 13.28 0 0 0 16.32 4C11.27 4 6.78 7.23 4.81 12.08l4.35 3.09z"/>
</svg>